{
	"asset":{
		"generator":"Khronos glTF Blender I/O v4.4.56",
		"version":"2.0"
	},
	"scene":0,
	"scenes":[
		{
			"name":"Scene",
			"nodes":[
				0,
				1,
				2,
				3,
				4,
				5,
				6,
				7,
				8,
				9
			]
		}
	],
	"nodes":[
		{
			"mesh":0,
			"name":"Cube",
			"scale":[
				0.10500000417232513,
				0.030000001192092896,
				0.005000000353902578
			]
		},
		{
			"mesh":1,
			"name":"Cube.001",
			"scale":[
				0.10500000417232513,
				0.030000001192092896,
				0.005000000353902578
			],
			"translation":[
				0,
				-0.20000000298023224,
				0
			]
		},
		{
			"mesh":2,
			"name":"Cube.002",
			"rotation":[
				0,
				0.7071068286895752,
				0,
				0.7071068286895752
			],
			"scale":[
				0.0650000050663948,
				0.030000001192092896,
				0.005000000353902578
			],
			"translation":[
				0.10000000149011612,
				-0.20000000298023224,
				-0.07000000774860382
			]
		},
		{
			"mesh":3,
			"name":"Cube.003",
			"rotation":[
				0,
				0.7071068286895752,
				0,
				0.7071068286895752
			],
			"scale":[
				0.0650000050663948,
				0.030000001192092896,
				0.005000000353902578
			],
			"translation":[
				-0.10000001639127731,
				-0.20000000298023224,
				-0.07000000774860382
			]
		},
		{
			"mesh":4,
			"name":"Cube.004",
			"scale":[
				0.10500000417232513,
				0.030000001192092896,
				0.005000000353902578
			],
			"translation":[
				0,
				0,
				-0.14000001549720764
			]
		},
		{
			"mesh":5,
			"name":"Cube.005",
			"scale":[
				0.10500000417232513,
				0.030000001192092896,
				0.005000000353902578
			],
			"translation":[
				0,
				-0.20000000298023224,
				-0.14000001549720764
			]
		},
		{
			"mesh":6,
			"name":"Cube.006",
			"rotation":[
				0.7071068286895752,
				0,
				0,
				0.7071068286895752
			],
			"scale":[
				0.08400000631809235,
				0.030000001192092896,
				0.005000000353902578
			],
			"translation":[
				0,
				-0.19500000774860382,
				-0.14000001549720764
			]
		},
		{
			"mesh":7,
			"name":"Cube.007",
			"rotation":[
				0.5,
				0.5,
				-0.5,
				0.4999999701976776
			],
			"scale":[
				0.001500000013038516,
				0.056865062564611435,
				0.040824152529239655
			],
			"translation":[
				-0.007134132087230682,
				-0.14917585253715515,
				-0.06976783275604248
			]
		},
		{
			"mesh":8,
			"name":"Cube.008",
			"rotation":[
				0,
				-0.7071068286895752,
				0.7071068286895752,
				1.1520233300643667e-07
			],
			"scale":[
				0.001500000013038516,
				0.0379292257130146,
				0.040824152529239655
			],
			"translation":[
				-0.03272998705506325,
				-0.14917583763599396,
				-0.06976783275604248
			]
		},
		{
			"mesh":9,
			"name":"Cube.009",
			"rotation":[
				0,
				-0.7071068286895752,
				0.7071068286895752,
				1.1520233300643667e-07
			],
			"scale":[
				0.001500000013038516,
				0.0379292257130146,
				0.040824152529239655
			],
			"translation":[
				0.03727000579237938,
				-0.14917585253715515,
				-0.06976784020662308
			]
		}
	],
	"materials":[
		{
			"doubleSided":true,
			"name":"Material.001",
			"normalTexture":{
				"index":0
			},
			"pbrMetallicRoughness":{
				"baseColorTexture":{
					"index":1
				},
				"metallicFactor":0,
				"roughnessFactor":0.5
			}
		},
		{
			"doubleSided":true,
			"name":"Material.002",
			"normalTexture":{
				"index":2
			},
			"pbrMetallicRoughness":{
				"baseColorTexture":{
					"index":3
				},
				"metallicFactor":0,
				"roughnessFactor":0.5
			}
		},
		{
			"doubleSided":true,
			"name":"Material.006",
			"normalTexture":{
				"index":4
			},
			"pbrMetallicRoughness":{
				"baseColorTexture":{
					"index":5
				},
				"metallicFactor":0,
				"roughnessFactor":0.5
			}
		},
		{
			"doubleSided":true,
			"name":"Material.005",
			"normalTexture":{
				"index":6
			},
			"pbrMetallicRoughness":{
				"baseColorTexture":{
					"index":7
				},
				"metallicFactor":0,
				"roughnessFactor":0.5
			}
		},
		{
			"doubleSided":true,
			"name":"Material.003",
			"normalTexture":{
				"index":8
			},
			"pbrMetallicRoughness":{
				"baseColorTexture":{
					"index":9
				},
				"metallicFactor":0,
				"roughnessFactor":0.5
			}
		},
		{
			"doubleSided":true,
			"name":"Material.004",
			"normalTexture":{
				"index":10
			},
			"pbrMetallicRoughness":{
				"baseColorTexture":{
					"index":11
				},
				"metallicFactor":0,
				"roughnessFactor":0.5
			}
		},
		{
			"doubleSided":true,
			"name":"Material.007",
			"normalTexture":{
				"index":12
			},
			"pbrMetallicRoughness":{
				"baseColorTexture":{
					"index":13
				},
				"metallicFactor":0,
				"roughnessFactor":0.5
			}
		},
		{
			"doubleSided":true,
			"name":"Material.008",
			"pbrMetallicRoughness":{
				"baseColorTexture":{
					"index":14
				},
				"metallicFactor":0,
				"roughnessFactor":0.5
			}
		},
		{
			"doubleSided":true,
			"name":"Material.009",
			"pbrMetallicRoughness":{
				"baseColorTexture":{
					"index":15
				},
				"metallicFactor":0,
				"roughnessFactor":0.5
			}
		},
		{
			"doubleSided":true,
			"name":"Material.010",
			"pbrMetallicRoughness":{
				"baseColorTexture":{
					"index":16
				},
				"metallicFactor":0,
				"roughnessFactor":0.5
			}
		}
	],
	"meshes":[
		{
			"name":"Cube.001",
			"primitives":[
				{
					"attributes":{
						"POSITION":0,
						"NORMAL":1,
						"TEXCOORD_0":2
					},
					"indices":3,
					"material":0
				}
			]
		},
		{
			"name":"Cube.002",
			"primitives":[
				{
					"attributes":{
						"POSITION":4,
						"NORMAL":5,
						"TEXCOORD_0":6
					},
					"indices":7,
					"material":1
				}
			]
		},
		{
			"name":"Cube.003",
			"primitives":[
				{
					"attributes":{
						"POSITION":8,
						"NORMAL":9,
						"TEXCOORD_0":10
					},
					"indices":11,
					"material":2
				}
			]
		},
		{
			"name":"Cube.004",
			"primitives":[
				{
					"attributes":{
						"POSITION":12,
						"NORMAL":13,
						"TEXCOORD_0":14
					},
					"indices":15,
					"material":3
				}
			]
		},
		{
			"name":"Cube.005",
			"primitives":[
				{
					"attributes":{
						"POSITION":16,
						"NORMAL":17,
						"TEXCOORD_0":18
					},
					"indices":7,
					"material":4
				}
			]
		},
		{
			"name":"Cube.006",
			"primitives":[
				{
					"attributes":{
						"POSITION":19,
						"NORMAL":20,
						"TEXCOORD_0":21
					},
					"indices":7,
					"material":5
				}
			]
		},
		{
			"name":"Cube.007",
			"primitives":[
				{
					"attributes":{
						"POSITION":22,
						"NORMAL":23,
						"TEXCOORD_0":24
					},
					"indices":7,
					"material":6
				}
			]
		},
		{
			"name":"Cube",
			"primitives":[
				{
					"attributes":{
						"POSITION":25,
						"NORMAL":26,
						"TEXCOORD_0":27
					},
					"indices":28,
					"material":7
				}
			]
		},
		{
			"name":"Cube.009",
			"primitives":[
				{
					"attributes":{
						"POSITION":29,
						"NORMAL":30,
						"TEXCOORD_0":31
					},
					"indices":28,
					"material":8
				}
			]
		},
		{
			"name":"Cube.010",
			"primitives":[
				{
					"attributes":{
						"POSITION":32,
						"NORMAL":33,
						"TEXCOORD_0":34
					},
					"indices":28,
					"material":9
				}
			]
		}
	],
	"textures":[
		{
			"sampler":0,
			"source":0
		},
		{
			"sampler":0,
			"source":1
		},
		{
			"sampler":0,
			"source":2
		},
		{
			"sampler":0,
			"source":1
		},
		{
			"sampler":0,
			"source":2
		},
		{
			"sampler":0,
			"source":3
		},
		{
			"sampler":0,
			"source":2
		},
		{
			"sampler":0,
			"source":3
		},
		{
			"sampler":0,
			"source":2
		},
		{
			"sampler":0,
			"source":3
		},
		{
			"sampler":0,
			"source":2
		},
		{
			"sampler":0,
			"source":3
		},
		{
			"sampler":0,
			"source":2
		},
		{
			"sampler":0,
			"source":3
		},
		{
			"sampler":0,
			"source":4
		},
		{
			"sampler":0,
			"source":4
		},
		{
			"sampler":0,
			"source":4
		}
	],
	"images":[
		{
			"mimeType":"image/jpeg",
			"name":"MAPAS-TEXTURAS_normal",
			"uri":"MAPAS-TEXTURAS_normal.jpg"
		},
		{
			"mimeType":"image/jpeg",
			"name":"textura-de-madera-clara-fondo-beige-con-espacio-de-diseno",
			"uri":"textura-de-madera-clara-fondo-beige-con-espacio-de-diseno.jpg"
		},
		{
			"mimeType":"image/jpeg",
			"name":"MAPAS-TEXTURAS_normal.jpg",
			"uri":"MAPAS-TEXTURAS_normal_jpg.jpg"
		},
		{
			"mimeType":"image/jpeg",
			"name":"MAPAS-TEXTURAS_diffuseOriginal.jpg",
			"uri":"MAPAS-TEXTURAS_diffuseOriginal_jpg.jpg"
		},
		{
			"mimeType":"image/jpeg",
			"name":"texturas-de-madera-para-el-fondo",
			"uri":"texturas-de-madera-para-el-fondo.jpg"
		}
	],
	"accessors":[
		{
			"bufferView":0,
			"componentType":5126,
			"count":47,
			"max":[
				1,
				2,
				1
			],
			"min":[
				-1,
				0,
				-1
			],
			"type":"VEC3"
		},
		{
			"bufferView":1,
			"componentType":5126,
			"count":47,
			"type":"VEC3"
		},
		{
			"bufferView":2,
			"componentType":5126,
			"count":47,
			"type":"VEC2"
		},
		{
			"bufferView":3,
			"componentType":5123,
			"count":84,
			"type":"SCALAR"
		},
		{
			"bufferView":4,
			"componentType":5126,
			"count":24,
			"max":[
				1,
				2,
				1
			],
			"min":[
				-1,
				0,
				-1
			],
			"type":"VEC3"
		},
		{
			"bufferView":5,
			"componentType":5126,
			"count":24,
			"type":"VEC3"
		},
		{
			"bufferView":6,
			"componentType":5126,
			"count":24,
			"type":"VEC2"
		},
		{
			"bufferView":7,
			"componentType":5123,
			"count":36,
			"type":"SCALAR"
		},
		{
			"bufferView":8,
			"componentType":5126,
			"count":48,
			"max":[
				1,
				8.666667938232422,
				0.9999999403953552
			],
			"min":[
				-1,
				0,
				-0.9999999403953552
			],
			"type":"VEC3"
		},
		{
			"bufferView":9,
			"componentType":5126,
			"count":48,
			"type":"VEC3"
		},
		{
			"bufferView":10,
			"componentType":5126,
			"count":48,
			"type":"VEC2"
		},
		{
			"bufferView":11,
			"componentType":5123,
			"count":84,
			"type":"SCALAR"
		},
		{
			"bufferView":12,
			"componentType":5126,
			"count":436,
			"max":[
				1,
				8.666667938232422,
				1.000003695487976
			],
			"min":[
				-1,
				0,
				-0.9999960660934448
			],
			"type":"VEC3"
		},
		{
			"bufferView":13,
			"componentType":5126,
			"count":436,
			"type":"VEC3"
		},
		{
			"bufferView":14,
			"componentType":5126,
			"count":436,
			"type":"VEC2"
		},
		{
			"bufferView":15,
			"componentType":5123,
			"count":888,
			"type":"SCALAR"
		},
		{
			"bufferView":16,
			"componentType":5126,
			"count":24,
			"max":[
				1,
				2,
				1
			],
			"min":[
				-1,
				0,
				-1
			],
			"type":"VEC3"
		},
		{
			"bufferView":17,
			"componentType":5126,
			"count":24,
			"type":"VEC3"
		},
		{
			"bufferView":18,
			"componentType":5126,
			"count":24,
			"type":"VEC2"
		},
		{
			"bufferView":19,
			"componentType":5126,
			"count":24,
			"max":[
				1,
				2,
				1
			],
			"min":[
				-1,
				0,
				-1
			],
			"type":"VEC3"
		},
		{
			"bufferView":20,
			"componentType":5126,
			"count":24,
			"type":"VEC3"
		},
		{
			"bufferView":21,
			"componentType":5126,
			"count":24,
			"type":"VEC2"
		},
		{
			"bufferView":22,
			"componentType":5126,
			"count":24,
			"max":[
				1.13095223903656,
				4.5,
				0.9999999403953552
			],
			"min":[
				-1.1309525966644287,
				0.16666650772094727,
				-1.0000007152557373
			],
			"type":"VEC3"
		},
		{
			"bufferView":23,
			"componentType":5126,
			"count":24,
			"type":"VEC3"
		},
		{
			"bufferView":24,
			"componentType":5126,
			"count":24,
			"type":"VEC2"
		},
		{
			"bufferView":25,
			"componentType":5126,
			"count":40,
			"max":[
				1.0000011920928955,
				1.9005457162857056,
				1
			],
			"min":[
				-1.0000015497207642,
				-1.658715009689331,
				-1.4495303630828857
			],
			"type":"VEC3"
		},
		{
			"bufferView":26,
			"componentType":5126,
			"count":40,
			"type":"VEC3"
		},
		{
			"bufferView":27,
			"componentType":5126,
			"count":40,
			"type":"VEC2"
		},
		{
			"bufferView":28,
			"componentType":5123,
			"count":84,
			"type":"SCALAR"
		},
		{
			"bufferView":29,
			"componentType":5126,
			"count":40,
			"max":[
				1.0000011920928955,
				1.9005457162857056,
				1
			],
			"min":[
				-1.0000015497207642,
				-1.658715009689331,
				-1.4495303630828857
			],
			"type":"VEC3"
		},
		{
			"bufferView":30,
			"componentType":5126,
			"count":40,
			"type":"VEC3"
		},
		{
			"bufferView":31,
			"componentType":5126,
			"count":40,
			"type":"VEC2"
		},
		{
			"bufferView":32,
			"componentType":5126,
			"count":40,
			"max":[
				1.0000011920928955,
				1.9005457162857056,
				1
			],
			"min":[
				-1.0000015497207642,
				-1.658715009689331,
				-1.4495303630828857
			],
			"type":"VEC3"
		},
		{
			"bufferView":33,
			"componentType":5126,
			"count":40,
			"type":"VEC3"
		},
		{
			"bufferView":34,
			"componentType":5126,
			"count":40,
			"type":"VEC2"
		}
	],
	"bufferViews":[
		{
			"buffer":0,
			"byteLength":564,
			"byteOffset":0,
			"target":34962
		},
		{
			"buffer":0,
			"byteLength":564,
			"byteOffset":564,
			"target":34962
		},
		{
			"buffer":0,
			"byteLength":376,
			"byteOffset":1128,
			"target":34962
		},
		{
			"buffer":0,
			"byteLength":168,
			"byteOffset":1504,
			"target":34963
		},
		{
			"buffer":0,
			"byteLength":288,
			"byteOffset":1672,
			"target":34962
		},
		{
			"buffer":0,
			"byteLength":288,
			"byteOffset":1960,
			"target":34962
		},
		{
			"buffer":0,
			"byteLength":192,
			"byteOffset":2248,
			"target":34962
		},
		{
			"buffer":0,
			"byteLength":72,
			"byteOffset":2440,
			"target":34963
		},
		{
			"buffer":0,
			"byteLength":576,
			"byteOffset":2512,
			"target":34962
		},
		{
			"buffer":0,
			"byteLength":576,
			"byteOffset":3088,
			"target":34962
		},
		{
			"buffer":0,
			"byteLength":384,
			"byteOffset":3664,
			"target":34962
		},
		{
			"buffer":0,
			"byteLength":168,
			"byteOffset":4048,
			"target":34963
		},
		{
			"buffer":0,
			"byteLength":5232,
			"byteOffset":4216,
			"target":34962
		},
		{
			"buffer":0,
			"byteLength":5232,
			"byteOffset":9448,
			"target":34962
		},
		{
			"buffer":0,
			"byteLength":3488,
			"byteOffset":14680,
			"target":34962
		},
		{
			"buffer":0,
			"byteLength":1776,
			"byteOffset":18168,
			"target":34963
		},
		{
			"buffer":0,
			"byteLength":288,
			"byteOffset":19944,
			"target":34962
		},
		{
			"buffer":0,
			"byteLength":288,
			"byteOffset":20232,
			"target":34962
		},
		{
			"buffer":0,
			"byteLength":192,
			"byteOffset":20520,
			"target":34962
		},
		{
			"buffer":0,
			"byteLength":288,
			"byteOffset":20712,
			"target":34962
		},
		{
			"buffer":0,
			"byteLength":288,
			"byteOffset":21000,
			"target":34962
		},
		{
			"buffer":0,
			"byteLength":192,
			"byteOffset":21288,
			"target":34962
		},
		{
			"buffer":0,
			"byteLength":288,
			"byteOffset":21480,
			"target":34962
		},
		{
			"buffer":0,
			"byteLength":288,
			"byteOffset":21768,
			"target":34962
		},
		{
			"buffer":0,
			"byteLength":192,
			"byteOffset":22056,
			"target":34962
		},
		{
			"buffer":0,
			"byteLength":480,
			"byteOffset":22248,
			"target":34962
		},
		{
			"buffer":0,
			"byteLength":480,
			"byteOffset":22728,
			"target":34962
		},
		{
			"buffer":0,
			"byteLength":320,
			"byteOffset":23208,
			"target":34962
		},
		{
			"buffer":0,
			"byteLength":168,
			"byteOffset":23528,
			"target":34963
		},
		{
			"buffer":0,
			"byteLength":480,
			"byteOffset":23696,
			"target":34962
		},
		{
			"buffer":0,
			"byteLength":480,
			"byteOffset":24176,
			"target":34962
		},
		{
			"buffer":0,
			"byteLength":320,
			"byteOffset":24656,
			"target":34962
		},
		{
			"buffer":0,
			"byteLength":480,
			"byteOffset":24976,
			"target":34962
		},
		{
			"buffer":0,
			"byteLength":480,
			"byteOffset":25456,
			"target":34962
		},
		{
			"buffer":0,
			"byteLength":320,
			"byteOffset":25936,
			"target":34962
		}
	],
	"samplers":[
		{
			"magFilter":9729,
			"minFilter":9987
		}
	],
	"buffers":[
		{
			"byteLength":26256,
			"uri":"CAJA.bin"
		}
	]
}
